<svg version="1.1" xmlns="http://www.w3.org/2000/svg" xmlns:xlink="http://www.w3.org/1999/xlink" width="73.04045" height="149.74857" viewBox="0,0,73.04045,149.74857"><g transform="translate(-191.81671,-195.1086)"><g stroke-miterlimit="10"><path d="M215.46624,321.74089v-104.00708h48.90122v104.00708z" fill="#000000" stroke="none" stroke-width="0" stroke-linecap="butt"/><path d="M264.47159,218.63501c0,12.99327 -10.96644,23.5264 -24.49422,23.5264c-13.52778,0 -24.49422,-10.53312 -24.49422,-23.5264c0,-12.99327 10.96644,-23.5264 24.49422,-23.5264c13.52778,0 24.49422,10.53312 24.49422,23.5264z" fill="#000000" stroke="none" stroke-width="0" stroke-linecap="butt"/><path d="M264.85715,320.00003c0,13.72822 -11.12893,24.85715 -24.85715,24.85715c-13.72822,0 -24.85715,-11.12892 -24.85715,-24.85715c0,-13.72822 11.12893,-24.85715 24.85715,-24.85715c13.72822,0 24.85715,11.12892 24.85715,24.85715z" fill="#414141" stroke="none" stroke-width="0" stroke-linecap="butt"/><path d="M253.01988,258.35879l-14.73856,22.06438l-8.45012,-7.39386" fill="none" stroke="#ffffff" stroke-width="2.5" stroke-linecap="round"/><path d="M229.09466,215.49196l20.97308,19.61449" fill="none" stroke="#ffffff" stroke-width="2.5" stroke-linecap="round"/><path d="M249.14364,215.46815l-19.67001,19.58714" fill="none" stroke="#ffffff" stroke-width="2.5" stroke-linecap="round"/><text transform="translate(208.40624,303.88495) rotate(-90.42534) scale(0.39101,0.39101)" font-size="40" xml:space="preserve" fill="#000000" stroke="none" stroke-width="1" stroke-linecap="butt" font-family="&quot;InriaSans-Regular&quot;, Sans Serif" font-weight="normal" text-anchor="start"><tspan x="0" dy="0">Etes-vous sûr ?</tspan></text></g></g></svg>