<svg version="1.1" xmlns="http://www.w3.org/2000/svg" xmlns:xlink="http://www.w3.org/1999/xlink" width="484" height="286" viewBox="0,0,484,286"><defs><linearGradient x1="241" y1="173" x2="241" y2="234" gradientUnits="userSpaceOnUse" id="color-1"><stop offset="0" stop-color="#ffffff" stop-opacity="0"/><stop offset="1" stop-color="#ffffff" stop-opacity="0.45882"/></linearGradient><linearGradient x1="239" y1="459" x2="239" y2="398" gradientUnits="userSpaceOnUse" id="color-2"><stop offset="0" stop-color="#ffffff" stop-opacity="0"/><stop offset="1" stop-color="#ffffff" stop-opacity="0.45882"/></linearGradient></defs><g transform="translate(2,-173)"><g stroke-miterlimit="10"><path d="M-1,398v-164h482v164z" fill-opacity="0.45882" fill="#ffffff" stroke="none" stroke-width="0"/><path d="M103.14628,367.63928v-94.16742h273.70747v94.16742z" fill="#dfdfdf" stroke="#000000" stroke-width="1.5"/><text transform="translate(173.8889,304.84049) scale(0.5,0.5)" font-size="40" xml:space="preserve" fill="#000000" stroke="none" stroke-width="1" font-family="&quot;InriaSans-Regular&quot;, Sans Serif" font-weight="normal" text-anchor="start"><tspan x="0" dy="0">Etes-vous sûr ?</tspan></text><text transform="translate(117.65457,323.93654) scale(0.3412,0.3412)" font-size="40" xml:space="preserve" fill="#000000" stroke="none" stroke-width="1" font-family="&quot;InriaSans-Regular&quot;, Sans Serif" font-weight="normal" text-anchor="start"><tspan x="0" dy="0">Cela va écraser toute liste non sauvegardé</tspan></text><path d="M119.50981,356.18038v-19.44445h114.85099v19.44445z" fill="#000000" stroke="none" stroke-width="0"/><text transform="translate(163.6631,350.32411) scale(0.343,0.343)" font-size="40" xml:space="preserve" fill="#ffffff" stroke="none" stroke-width="1" font-family="&quot;InriaSans-Regular&quot;, Sans Serif" font-weight="normal" text-anchor="start"><tspan x="0" dy="0">Oui</tspan></text><path d="M249.21568,356.18038v-19.44445h112.79216v19.44445z" fill="#000000" stroke="none" stroke-width="0"/><text transform="translate(293.369,350.32411) scale(0.34301,0.34301)" font-size="40" xml:space="preserve" fill="#ffffff" stroke="none" stroke-width="1" font-family="&quot;InriaSans-Regular&quot;, Sans Serif" font-weight="normal" text-anchor="start"><tspan x="0" dy="0">Non</tspan></text><path d="M0,234v-61h482v61z" fill="url(#color-1)" stroke="none" stroke-width="0"/><path d="M480,398v61h-482v-61z" fill="url(#color-2)" stroke="none" stroke-width="0"/></g></g></svg>